<svg width="48" height="48" viewBox="0 0 48 48" fill="none" xmlns="http://www.w3.org/2000/svg">
<path d="M40.9336 15.3876L41.4268 14.2562C42.3058 12.2389 43.889 10.6328 45.8646 9.75416L47.3838 9.07844C48.2054 8.71306 48.2054 7.51762 47.3838 7.15224L45.9496 6.51428C43.9232 5.61302 42.3116 3.94746 41.4476 1.86166L40.9412 0.639068C40.5884 -0.213022 39.4116 -0.213022 39.0586 0.639068L38.5522 1.86166C37.6884 3.94746 36.0768 5.61302 34.0504 6.51428L32.616 7.15224C31.7946 7.51762 31.7946 8.71306 32.616 9.07844L34.1354 9.75416C36.111 10.6328 37.6942 12.2389 38.5732 14.2562L39.0662 15.3876C39.4272 16.2158 40.5728 16.2158 40.9336 15.3876ZM28.7738 10.6776C29.322 11.5451 30.0714 12.1861 31.0222 12.6006L32.1528 13.0936C32.913 13.425 33.5286 13.8905 33.9996 14.4901V20C33.9996 25.5228 29.5224 30 23.9996 30C18.4767 30 13.9995 25.5228 13.9995 20V12C13.9995 6.47716 18.4767 2 23.9996 2C26.2476 2 28.3226 2.74188 29.9928 3.99418C29.5126 4.35356 29.1062 4.79626 28.7738 5.32228C28.258 6.13876 28 7.03132 28 7.99994C28 8.96856 28.258 9.86112 28.7738 10.6776ZM6.10938 22H10.1413C11.1118 28.7846 16.9466 34 23.9996 34C31.0524 34 36.8872 28.7846 37.8578 22H41.8896C40.9674 30.3432 34.3428 36.9678 25.9996 37.8902V46H21.9996V37.8902C13.6563 36.9678 7.03167 30.3432 6.10938 22Z" fill="url(#paint0_linear_65_96)"/>
<defs>
<linearGradient id="paint0_linear_65_96" x1="25.6583" y1="24.0542" x2="25.027" y2="51.46" gradientUnits="userSpaceOnUse">
<stop stop-color="#E89C30"/>
<stop offset="1" stop-color="#FFDBA8"/>
</linearGradient>
</defs>
</svg>
