<svg width="48" height="48" viewBox="0 0 48 48" fill="none" xmlns="http://www.w3.org/2000/svg">
<path d="M26.6856 3.99992C26.2432 5.25126 26 6.5971 26 7.99992C26 14.6274 31.3726 19.9999 38 19.9999C39.4028 19.9999 40.7486 19.7568 42 19.3144V42C42 43.1046 41.1046 44 40 44H13C9.134 44 6 40.866 6 37V9.99994C6.00006 6.68626 8.68632 3.99992 12 3.99992H26.6856ZM13 34C11.3432 34 10.0001 35.3432 10 37C10 38.6568 11.3431 40 13 40H38V34H13ZM37.0586 0.658584C37.4118 -0.192986 38.5884 -0.19301 38.9414 0.658584L39.4472 1.88124C40.3112 3.96684 41.9232 5.63226 43.9492 6.5336L45.3848 7.17226C46.2052 7.53792 46.2052 8.7323 45.3848 9.09806L43.8652 9.77384C41.8898 10.6524 40.3068 12.2588 39.4278 14.2758L38.9336 15.4067C38.5728 16.2349 37.4274 16.2349 37.0664 15.4067L36.5742 14.2758C35.6952 12.2585 34.1104 10.6525 32.1348 9.77384L30.6152 9.09806C29.7948 8.73234 29.7948 7.53788 30.6152 7.17226L32.0508 6.5336C34.077 5.63228 35.689 3.96686 36.5528 1.88124L37.0586 0.658584Z" fill="url(#paint0_linear_65_94)"/>
<defs>
<linearGradient id="paint0_linear_65_94" x1="24.6667" y1="23.0178" x2="24.0623" y2="49.2202" gradientUnits="userSpaceOnUse">
<stop stop-color="#E89C30"/>
<stop offset="1" stop-color="#FFDBA8"/>
</linearGradient>
</defs>
</svg>
