<svg width="265" height="52" viewBox="0 0 265 52" fill="none" xmlns="http://www.w3.org/2000/svg">
<g filter="url(#filter0_d_35_372)">
<rect x="6.5" y="3.5" width="119" height="39" rx="5.5" fill="#212121"/>
<rect x="6.5" y="3.5" width="119" height="39" rx="5.5" stroke="#FFFEFE"/>
<path d="M23.8048 22.4617L14.0896 33.0059C14.0905 33.0078 14.0905 33.0106 14.0914 33.0125C14.3898 34.1574 15.4118 35 16.6254 35C17.1108 35 17.5662 34.8656 17.9567 34.6305L17.9877 34.6118L28.9229 28.1593L23.8048 22.4617Z" fill="#EA4335"/>
<path d="M33.6331 20.6662L33.624 20.6597L28.9028 17.8612L23.5839 22.7013L28.922 28.1582L33.6176 25.3878C34.4407 24.9324 35 24.045 35 23.0223C35 22.0052 34.4489 21.1225 33.6331 20.6662Z" fill="#FBBC04"/>
<path d="M14.0894 12.9932C14.031 13.2135 14 13.4449 14 13.6838V32.3163C14 32.5552 14.031 32.7866 14.0903 33.0059L24.1386 22.7313L14.0894 12.9932Z" fill="#4285F4"/>
<path d="M23.8766 23L28.9044 17.8594L17.982 11.3836C17.585 11.1401 17.1215 11.0001 16.626 11.0001C15.4124 11.0001 14.3886 11.8446 14.0902 12.9904C14.0902 12.9914 14.0893 12.9923 14.0893 12.9932L23.8766 23Z" fill="#34A853"/>
<path d="M49.61 14.71C49.61 15.71 49.3133 16.5067 48.72 17.1C48.0533 17.8067 47.1767 18.16 46.09 18.16C45.05 18.16 44.17 17.8 43.45 17.08C42.73 16.36 42.37 15.4733 42.37 14.42C42.37 13.3667 42.73 12.48 43.45 11.76C44.17 11.04 45.05 10.68 46.09 10.68C46.6167 10.68 47.1133 10.7733 47.58 10.96C48.0467 11.1467 48.43 11.41 48.73 11.75L48.07 12.41C47.85 12.1433 47.5633 11.9367 47.21 11.79C46.8633 11.6367 46.49 11.56 46.09 11.56C45.31 11.56 44.65 11.83 44.11 12.37C43.5767 12.9167 43.31 13.6 43.31 14.42C43.31 15.24 43.5767 15.9233 44.11 16.47C44.65 17.01 45.31 17.28 46.09 17.28C46.8033 17.28 47.3967 17.08 47.87 16.68C48.3433 16.28 48.6167 15.73 48.69 15.03H46.09V14.17H49.56C49.5933 14.3567 49.61 14.5367 49.61 14.71ZM54.9078 10.84V11.72H51.6478V13.99H54.5878V14.85H51.6478V17.12H54.9078V18H50.7278V10.84H54.9078ZM58.5877 11.72V18H57.6677V11.72H55.6677V10.84H60.5877V11.72H58.5877ZM64.6654 18H63.7454V10.84H64.6654V18ZM68.5487 11.72V18H67.6287V11.72H65.6287V10.84H70.5487V11.72H68.5487ZM80.521 14.42C80.521 15.48 80.1677 16.3667 79.461 17.08C78.7477 17.8 77.8743 18.16 76.841 18.16C75.801 18.16 74.9277 17.8 74.221 17.08C73.5143 16.3667 73.161 15.48 73.161 14.42C73.161 13.36 73.5143 12.4733 74.221 11.76C74.9277 11.04 75.801 10.68 76.841 10.68C77.881 10.68 78.7543 11.0433 79.461 11.77C80.1677 12.4833 80.521 13.3667 80.521 14.42ZM74.101 14.42C74.101 15.2467 74.361 15.93 74.881 16.47C75.4077 17.01 76.061 17.28 76.841 17.28C77.621 17.28 78.271 17.01 78.791 16.47C79.3177 15.9367 79.581 15.2533 79.581 14.42C79.581 13.5867 79.3177 12.9033 78.791 12.37C78.271 11.83 77.621 11.56 76.841 11.56C76.061 11.56 75.4077 11.83 74.881 12.37C74.361 12.91 74.101 13.5933 74.101 14.42ZM82.5267 18H81.6067V10.84H82.7267L86.2067 16.41H86.2467L86.2067 15.03V10.84H87.1267V18H86.1667L82.5267 12.16H82.4867L82.5267 13.54V18Z" fill="white"/>
<path d="M99.5181 34.4097H101.147V23.3981H99.5181V34.4097ZM114.189 27.3646L112.322 32.1388H112.266L110.328 27.3646H108.573L111.479 34.0371L109.823 37.749H111.521L116 27.3646H114.189ZM104.952 33.1588C104.418 33.1588 103.674 32.8902 103.674 32.2234C103.674 31.3742 104.6 31.0483 105.401 31.0483C106.116 31.0483 106.454 31.2042 106.889 31.4165C106.762 32.4365 105.892 33.1588 104.952 33.1588ZM105.148 27.1241C103.969 27.1241 102.747 27.6482 102.242 28.8101L103.688 29.4188C103.997 28.8101 104.572 28.611 105.176 28.611C106.019 28.611 106.875 29.121 106.889 30.0283V30.1411C106.594 29.971 105.963 29.7165 105.19 29.7165C103.632 29.7165 102.045 30.5806 102.045 32.1952C102.045 33.6689 103.323 34.6184 104.755 34.6184C105.85 34.6184 106.454 34.1225 106.833 33.5411H106.889V34.3912H108.461V30.1692C108.461 28.2146 107.015 27.1241 105.148 27.1241ZM95.0821 28.7053H92.7655V24.9308H95.0821C96.2998 24.9308 96.9911 25.9482 96.9911 26.8176C96.9911 27.6711 96.2998 28.7053 95.0821 28.7053ZM95.0402 23.3981H91.1375V34.4097H92.7655V30.2379H95.0402C96.8453 30.2379 98.6199 28.9184 98.6199 26.8176C98.6199 24.7168 96.8453 23.3981 95.0402 23.3981ZM73.7583 33.1606C72.6332 33.1606 71.6913 32.2102 71.6913 30.9047C71.6913 29.5852 72.6332 28.6198 73.7583 28.6198C74.8695 28.6198 75.7406 29.5852 75.7406 30.9047C75.7406 32.2102 74.8695 33.1606 73.7583 33.1606ZM75.6289 27.9812H75.5722C75.2064 27.5417 74.5038 27.1444 73.6178 27.1444C71.7611 27.1444 70.0599 28.7898 70.0599 30.9047C70.0599 33.0047 71.7611 34.6369 73.6178 34.6369C74.5038 34.6369 75.2064 34.2396 75.5722 33.7851H75.6289V34.3251C75.6289 35.7582 74.8695 36.5246 73.6457 36.5246C72.6471 36.5246 72.0282 35.8005 71.7751 35.1901L70.3549 35.7864C70.7626 36.78 71.8458 38 73.6457 38C75.5582 38 77.1757 36.8646 77.1757 34.0978V27.3708H75.6289V27.9812ZM78.3008 34.4097H79.9323V23.3973H78.3008V34.4097ZM82.3362 30.777C82.2943 29.3298 83.4474 28.5916 84.2766 28.5916C84.9243 28.5916 85.4725 28.9176 85.6549 29.3862L82.3362 30.777ZM87.3989 29.528C87.0899 28.6912 86.1472 27.1444 84.2208 27.1444C82.3083 27.1444 80.7196 28.6621 80.7196 30.8907C80.7196 32.9906 82.2943 34.6369 84.4032 34.6369C86.1053 34.6369 87.0899 33.5869 87.4976 32.9765L86.2319 32.1247C85.8103 32.7493 85.2333 33.1606 84.4032 33.1606C83.5739 33.1606 82.983 32.7774 82.6033 32.0261L87.5674 29.9534L87.3989 29.528ZM47.8501 28.2939V29.883H51.6184C51.5058 30.777 51.2107 31.4297 50.7612 31.8834C50.2121 32.4374 49.3541 33.0479 47.8501 33.0479C45.5291 33.0479 43.7152 31.1602 43.7152 28.8189C43.7152 26.4767 45.5291 24.5899 47.8501 24.5899C49.1018 24.5899 50.0157 25.0867 50.6905 25.7254L51.8017 24.604C50.8589 23.6959 49.6081 23 47.8501 23C44.6719 23 42 25.6117 42 28.8189C42 32.0261 44.6719 34.6369 47.8501 34.6369C49.5653 34.6369 50.8589 34.0688 51.8715 33.0047C52.9129 31.9547 53.2358 30.4793 53.2358 29.2866C53.2358 28.9176 53.2079 28.5775 53.1512 28.2939H47.8501ZM57.5208 33.1606C56.3957 33.1606 55.425 32.2243 55.425 30.8907C55.425 29.5421 56.3957 28.6198 57.5208 28.6198C58.6451 28.6198 59.6158 29.5421 59.6158 30.8907C59.6158 32.2243 58.6451 33.1606 57.5208 33.1606ZM57.5208 27.1444C55.4669 27.1444 53.7936 28.7194 53.7936 30.8907C53.7936 33.0479 55.4669 34.6369 57.5208 34.6369C59.5739 34.6369 61.2472 33.0479 61.2472 30.8907C61.2472 28.7194 59.5739 27.1444 57.5208 27.1444ZM65.65 33.1606C64.5249 33.1606 63.5542 32.2243 63.5542 30.8907C63.5542 29.5421 64.5249 28.6198 65.65 28.6198C66.7752 28.6198 67.745 29.5421 67.745 30.8907C67.745 32.2243 66.7752 33.1606 65.65 33.1606ZM65.65 27.1444C63.597 27.1444 61.9237 28.7194 61.9237 30.8907C61.9237 33.0479 63.597 34.6369 65.65 34.6369C67.7031 34.6369 69.3764 33.0479 69.3764 30.8907C69.3764 28.7194 67.7031 27.1444 65.65 27.1444Z" fill="white"/>
<rect x="139.5" y="3.5" width="119" height="39" rx="5.5" fill="#212121"/>
<rect x="139.5" y="3.5" width="119" height="39" rx="5.5" stroke="#FFFEFE"/>
<path d="M163.705 23.763C163.717 22.8431 163.967 21.9411 164.432 21.141C164.897 20.3409 165.562 19.6687 166.365 19.1869C165.855 18.4758 165.182 17.8907 164.4 17.4779C163.618 17.065 162.748 16.836 161.859 16.8088C159.964 16.6146 158.126 17.9163 157.16 17.9163C156.175 17.9163 154.688 16.8281 153.086 16.8603C152.05 16.893 151.041 17.1871 150.156 17.714C149.271 18.2408 148.541 18.9825 148.037 19.8668C145.854 23.5571 147.482 28.9808 149.573 31.9639C150.62 33.4246 151.843 35.0562 153.443 34.9984C155.009 34.9349 155.593 34.0235 157.484 34.0235C159.356 34.0235 159.905 34.9984 161.537 34.9616C163.218 34.9349 164.276 33.4944 165.286 32.0198C166.038 30.979 166.616 29.8287 167 28.6115C166.024 28.2084 165.191 27.5337 164.605 26.6715C164.019 25.8093 163.706 24.7977 163.705 23.763Z" fill="white"/>
<path d="M160.621 14.8471C161.537 13.7734 161.988 12.3934 161.879 11C160.479 11.1435 159.186 11.7966 158.258 12.8291C157.804 13.3335 157.456 13.9203 157.235 14.556C157.013 15.1917 156.922 15.8638 156.967 16.5338C157.667 16.5408 158.359 16.3927 158.992 16.1005C159.625 15.8084 160.182 15.3798 160.621 14.8471Z" fill="white"/>
<path d="M175.791 11.5015H177.861C179.649 11.5015 180.52 12.5649 180.52 14.4941C180.52 16.4233 179.641 17.5 177.861 17.5H175.791V11.5015ZM176.789 12.3408V16.6606H177.751C178.938 16.6606 179.496 15.9443 179.496 14.5073C179.496 13.0615 178.933 12.3408 177.751 12.3408H176.789ZM183.675 12.7759C184.888 12.7759 185.736 13.5625 185.736 14.8677V15.4697C185.736 16.8188 184.888 17.5791 183.675 17.5791C182.444 17.5791 181.605 16.8276 181.605 15.4741V14.8721C181.605 13.6021 182.458 12.7759 183.675 12.7759ZM183.679 13.5625C182.985 13.5625 182.589 14.1426 182.589 14.9204V15.439C182.589 16.2168 182.958 16.7925 183.679 16.7925C184.391 16.7925 184.756 16.2212 184.756 15.439V14.9204C184.756 14.1426 184.374 13.5625 183.679 13.5625ZM192.899 12.855L191.677 17.5H190.684L189.713 14.0723H189.687L188.733 17.5H187.735L186.461 12.855H187.511L188.258 16.397H188.302L189.238 12.855H190.157L191.119 16.397H191.163L191.923 12.855H192.899ZM193.866 17.5V12.855H194.824V13.6899H194.872C194.991 13.3252 195.329 12.7847 196.27 12.7847C197.206 12.7847 197.834 13.3032 197.834 14.3623V17.5H196.858V14.6479C196.858 13.9404 196.489 13.6152 195.94 13.6152C195.219 13.6152 194.841 14.1689 194.841 14.9204V17.5H193.866ZM199.311 17.5V11.1851H200.286V17.5H199.311ZM203.635 12.7759C204.848 12.7759 205.696 13.5625 205.696 14.8677V15.4697C205.696 16.8188 204.848 17.5791 203.635 17.5791C202.404 17.5791 201.565 16.8276 201.565 15.4741V14.8721C201.565 13.6021 202.417 12.7759 203.635 12.7759ZM203.639 13.5625C202.945 13.5625 202.549 14.1426 202.549 14.9204V15.439C202.549 16.2168 202.918 16.7925 203.639 16.7925C204.351 16.7925 204.716 16.2212 204.716 15.439V14.9204C204.716 14.1426 204.333 13.5625 203.639 13.5625ZM208.223 17.5703C207.322 17.5703 206.702 17.0166 206.702 16.1509C206.702 15.3291 207.273 14.7754 208.346 14.7754H209.519V14.3403C209.519 13.8086 209.181 13.5581 208.645 13.5581C208.117 13.5581 207.88 13.7778 207.805 14.0854H206.878C206.935 13.3076 207.52 12.7847 208.675 12.7847C209.668 12.7847 210.49 13.1978 210.49 14.3535V17.5H209.563V16.8979H209.519C209.312 17.2539 208.908 17.5703 208.223 17.5703ZM208.526 16.8145C209.08 16.8145 209.519 16.4365 209.519 15.9312V15.4302H208.5C207.933 15.4302 207.682 15.7158 207.682 16.1025C207.682 16.5859 208.086 16.8145 208.526 16.8145ZM213.496 12.7935C214.151 12.7935 214.652 13.0835 214.832 13.5537H214.88V11.1851H215.856V17.5H214.907V16.7573H214.858C214.718 17.2275 214.16 17.5615 213.483 17.5615C212.415 17.5615 211.721 16.8013 211.721 15.5752V14.7798C211.721 13.5537 212.428 12.7935 213.496 12.7935ZM213.769 13.5933C213.118 13.5933 212.714 14.0767 212.714 14.9204V15.4302C212.714 16.2783 213.123 16.7617 213.791 16.7617C214.45 16.7617 214.88 16.2827 214.88 15.4917V14.7886C214.88 14.0723 214.41 13.5933 213.769 13.5933ZM221.213 12.7759C222.426 12.7759 223.274 13.5625 223.274 14.8677V15.4697C223.274 16.8188 222.426 17.5791 221.213 17.5791C219.982 17.5791 219.143 16.8276 219.143 15.4741V14.8721C219.143 13.6021 219.996 12.7759 221.213 12.7759ZM221.217 13.5625C220.523 13.5625 220.127 14.1426 220.127 14.9204V15.439C220.127 16.2168 220.497 16.7925 221.217 16.7925C221.929 16.7925 222.294 16.2212 222.294 15.439V14.9204C222.294 14.1426 221.912 13.5625 221.217 13.5625ZM224.531 17.5V12.855H225.489V13.6899H225.537C225.656 13.3252 225.994 12.7847 226.935 12.7847C227.871 12.7847 228.499 13.3032 228.499 14.3623V17.5H227.523V14.6479C227.523 13.9404 227.154 13.6152 226.605 13.6152C225.884 13.6152 225.506 14.1689 225.506 14.9204V17.5H224.531ZM232.274 12.8857V11.7256H233.228V12.8857H234.269V13.6504H233.228V16.1157C233.228 16.6211 233.417 16.7617 233.939 16.7617C234.071 16.7617 234.247 16.7529 234.322 16.7441V17.4912C234.243 17.5044 233.917 17.5308 233.698 17.5308C232.568 17.5308 232.261 17.1265 232.261 16.1948V13.6504H231.553V12.8857H232.274ZM235.5 17.5V11.1851H236.471V13.6899H236.519C236.62 13.3604 236.998 12.7847 237.93 12.7847C238.835 12.7847 239.481 13.3076 239.481 14.3667V17.5H238.51V14.6523C238.51 13.9448 238.119 13.6152 237.565 13.6152C236.866 13.6152 236.471 14.1646 236.471 14.9204V17.5H235.5ZM242.755 17.5791C241.489 17.5791 240.703 16.8013 240.703 15.4917V14.8633C240.703 13.5449 241.564 12.7759 242.698 12.7759C243.862 12.7759 244.684 13.5845 244.684 14.8633V15.4082H241.669V15.6367C241.669 16.3047 242.065 16.7969 242.75 16.7969C243.26 16.7969 243.612 16.5552 243.678 16.2651H244.631C244.574 16.8013 244.007 17.5791 242.755 17.5791ZM241.669 14.771H243.73V14.7095C243.73 14.0107 243.322 13.5449 242.702 13.5449C242.083 13.5449 241.669 14.0107 241.669 14.7095V14.771Z" fill="white"/>
<path d="M177.206 33.5H175.176L179.307 21.5029H181.539L185.661 33.5H183.552L182.488 30.1777H178.278L177.206 33.5ZM180.432 23.5771H180.353L178.727 28.6484H182.04L180.432 23.5771ZM191.264 33.6318C190.06 33.6318 189.146 33.0605 188.654 32.208H188.584V36.585H186.633V24.21H188.531V25.5723H188.601C189.111 24.6846 190.06 24.0869 191.308 24.0869C193.391 24.0869 194.877 25.6602 194.877 28.4375V29.2637C194.877 32.0234 193.409 33.6318 191.264 33.6318ZM190.816 32.0234C192.055 32.0234 192.899 31.0303 192.899 29.1582V28.5078C192.899 26.7061 192.108 25.6777 190.781 25.6777C189.419 25.6777 188.566 26.7852 188.566 28.499V29.1582C188.566 30.916 189.427 32.0234 190.816 32.0234ZM201.183 33.6318C199.979 33.6318 199.065 33.0605 198.573 32.208H198.502V36.585H196.551V24.21H198.45V25.5723H198.52C199.03 24.6846 199.979 24.0869 201.227 24.0869C203.31 24.0869 204.795 25.6602 204.795 28.4375V29.2637C204.795 32.0234 203.328 33.6318 201.183 33.6318ZM200.735 32.0234C201.974 32.0234 202.818 31.0303 202.818 29.1582V28.5078C202.818 26.7061 202.027 25.6777 200.7 25.6777C199.337 25.6777 198.485 26.7852 198.485 28.499V29.1582C198.485 30.916 199.346 32.0234 200.735 32.0234ZM208.839 30.1689H210.79C210.878 31.2061 211.792 32.0938 213.488 32.0938C215.044 32.0938 215.967 31.3643 215.967 30.2305C215.967 29.3164 215.351 28.8242 214.068 28.5166L212.099 28.0244C210.553 27.6641 209.164 26.7412 209.164 24.79C209.164 22.4961 211.168 21.2393 213.497 21.2393C215.826 21.2393 217.768 22.4961 217.812 24.7373H215.896C215.808 23.7178 215.026 22.874 213.471 22.874C212.099 22.874 211.168 23.5244 211.168 24.6406C211.168 25.4229 211.713 25.9854 212.829 26.2402L214.789 26.7236C216.591 27.1631 217.962 28.0156 217.962 30.0547C217.962 32.4102 216.055 33.7373 213.339 33.7373C209.999 33.7373 208.883 31.7861 208.839 30.1689ZM220.339 24.21V21.9512H222.255V24.21H224.066V25.7744H222.255V30.7314C222.255 31.7422 222.633 32.0234 223.679 32.0234C223.846 32.0234 224.004 32.0234 224.119 32.0059V33.5C223.961 33.5264 223.591 33.5615 223.196 33.5615C220.937 33.5615 220.313 32.7529 220.313 30.8896V25.7744H219.03V24.21H220.339ZM229.335 24.0518C232.007 24.0518 233.457 25.9326 233.457 28.4639V29.2109C233.457 31.8301 232.016 33.6582 229.335 33.6582C226.655 33.6582 225.196 31.8301 225.196 29.2109V28.4639C225.196 25.9414 226.663 24.0518 229.335 24.0518ZM229.335 25.6162C227.885 25.6162 227.164 26.8027 227.164 28.4902V29.2021C227.164 30.8633 227.876 32.085 229.335 32.085C230.794 32.085 231.497 30.8721 231.497 29.2021V28.4902C231.497 26.7939 230.785 25.6162 229.335 25.6162ZM235.106 33.5V24.21H237.057V25.4316H237.127C237.364 24.8516 238.059 24.0781 239.351 24.0781C239.606 24.0781 239.825 24.0957 240.01 24.1309V25.8535C239.843 25.8096 239.5 25.7832 239.175 25.7832C237.61 25.7832 237.083 26.75 237.083 27.998V33.5H235.106ZM244.743 33.6582C242.256 33.6582 240.674 32.0146 240.674 29.2637V28.3232C240.674 25.7305 242.22 24.0518 244.664 24.0518C247.142 24.0518 248.636 25.792 248.636 28.4111V29.2988H242.598V29.5186C242.598 31.083 243.442 32.1201 244.769 32.1201C245.762 32.1201 246.439 31.6279 246.677 30.8281H248.531C248.25 32.3311 247.037 33.6582 244.743 33.6582ZM242.598 27.9365H246.729V27.9189C246.729 26.6006 245.912 25.5635 244.673 25.5635C243.416 25.5635 242.598 26.6006 242.598 27.9189V27.9365Z" fill="white"/>
</g>
<defs>
<filter id="filter0_d_35_372" x="0" y="0" width="265" height="52" filterUnits="userSpaceOnUse" color-interpolation-filters="sRGB">
<feFlood flood-opacity="0" result="BackgroundImageFix"/>
<feColorMatrix in="SourceAlpha" type="matrix" values="0 0 0 0 0 0 0 0 0 0 0 0 0 0 0 0 0 0 127 0" result="hardAlpha"/>
<feOffset dy="3"/>
<feGaussianBlur stdDeviation="3"/>
<feComposite in2="hardAlpha" operator="out"/>
<feColorMatrix type="matrix" values="0 0 0 0 0.913462 0 0 0 0 0.913462 0 0 0 0 0.913462 0 0 0 0.16 0"/>
<feBlend mode="normal" in2="BackgroundImageFix" result="effect1_dropShadow_35_372"/>
<feBlend mode="normal" in="SourceGraphic" in2="effect1_dropShadow_35_372" result="shape"/>
</filter>
</defs>
</svg>
